<svg xmlns="http://www.w3.org/2000/svg" xmlns:xlink="http://www.w3.org/1999/xlink" width="477.816" height="219.284" viewBox="0 0 477.816 219.284">
  <defs>
    <clipPath id="clip-path">
      <rect id="Rectangle_54" data-name="Rectangle 54" width="477.816" height="219.284" fill="#fff" stroke="#707070" stroke-width="1"/>
    </clipPath>
  </defs>
  <g id="Group_276" data-name="Group 276" transform="translate(0 6.419)">
    <g id="Group_177" data-name="Group 177" transform="translate(0 -6.419)" clip-path="url(#clip-path)">
      <path id="Path_2302" data-name="Path 2302" d="M472.6,60.03l1.673,4.691,1.686-4.691h1.861v6.553h-1.2V61.295L474.8,66.583h-1.051l-1.827-5.288v5.288h-1.2V60.03Zm-8.572,1.093V60.03h5.585v1.093h-2.142v5.46h-1.3v-5.46ZM291.83,98.232h-1.558c-2.328,0-3.507.958-3.507,2.844v5.634c0,1.445.512,2.18,3.312,2.18h1.752ZM315.605,86.5v32.106H281.113c-5.742,0-19.1-1.321-19.1-13.553v-2.485c0-12.424,15.512-13.388,20.266-13.388h9.549V82.856c0-1.425-1.07-2.348-2.726-2.348h-2.338v6.626H266.888c-4.617,0-7.6,2.482-7.6,6.321v25.149H235.317V72.448h23.777V80.04l.365.09c2.906-5.646,8.42-8.509,16.391-8.509h15.786c19.959,0,23.969,5.693,23.969,14.879m-26.1-59.392h4.483V11.1c-1.515.028-8.848.444-11.718,5.7l-.363-.094V11.76H258.13V57.916h23.777V33.431c0-3.959,2.841-6.323,7.6-6.323M439.037,81.834h-1.949c-2.01,0-2.726,1.04-2.726,2.016V107.2c0,1.394.84,2.017,2.726,2.017h1.949Zm0-21.809h23.775v58.581H429.294c-5.625,0-18.708-1.321-18.708-13.553V85.838a11.359,11.359,0,0,1,6.571-10.659c4.292-2.257,9.6-2.731,13.308-2.731h8.573ZM382.759,82.856c0-1.3-1.1-2.181-2.728-2.181a2.418,2.418,0,0,0-2.531,2.181v5.659h5.259Zm23.582,4.306V98.4H377.5v9.138c0,1.279,1.271,1.851,2.531,1.851,1.61,0,2.533-.674,2.533-1.851v-6.762h23.777v3.118c0,10.348-8.606,15.376-26.31,15.376-17.326,0-26.113-5.284-26.113-15.709V87c0-10.348,8.542-15.378,26.113-15.378,21.746,0,26.31,8.453,26.31,15.542M171.112,23.326c0-1.055-1.174-2.18-2.922-2.18h-2.142V48.531h2.142c1.747,0,2.922-1.128,2.922-2.18Zm2.73,34.59h-7.793v7.953H142.272V11.76h32.74c9.733,0,19.682,1.61,19.682,13.554V44.2c0,9.232-6.821,13.719-20.851,13.719m1.3,31.588-.1-.023c-4.851-1.156-7.067-1.683-7.067-3.976V83.353c0-1.214,1.177-1.85,2.339-1.85,1.608,0,2.532.675,2.532,1.85v4.609h22.608V84.347c0-8.453-8.225-12.562-25.14-12.562-11.824,0-25.919,2.208-25.919,12.728V86.5c0,5.552,1.587,10.528,21.092,15.216,4.838,1.2,7.162,1.878,7.162,4.164V108.2c0,1.684-1.9,1.684-2.53,1.684-1.162,0-2.336-.635-2.336-1.848v-4.445H144.2v2.291c0,9.874,7.267,13.721,25.919,13.721,18.029,0,25.724-4.5,25.724-15.045v-1.989c0-5.8-2.877-8.9-20.7-13.062M111.89,106.376V72.448H88.115v32.6c0,8.74,6.644,13.553,18.708,13.553h33.713V72.448H116.762v36.109h-2.728c-1.778,0-2.144-.871-2.144-2.181M223.278,65.823H199.5v40.223c0,8.8,5.48,12.559,18.319,12.559h13.059V105.411H226.59c-2.323,0-3.312-.652-3.312-2.181V86.638h7.6V72.448h-7.6Zm119.965,0H319.466v40.223c0,8.8,5.479,12.559,18.318,12.559h12.862V105.411h-4.092c-2.414,0-3.311-.59-3.311-2.181V86.638h7.4V72.448h-7.4ZM54.92,62.51H30.95v56.1H54.92Zm28.751,0H59.7v56.1H83.671ZM26.31,53.068H0V118.6H26.31Zm334.625,5.676c17.894,0,25.529-4.5,25.529-15.043V41.712c0-5.8-2.877-8.9-20.7-13.061l-.093-.023c-4.855-1.156-7.072-1.684-7.072-3.976V22.5c0-1.214,1.174-1.85,2.337-1.85,1.609,0,2.531.675,2.531,1.85v4.609h21.828V23.657c0-8.563-8.031-12.725-24.554-12.725-21.262,0-25.724,7.01-25.724,12.891v1.823c0,5.32,1.627,10.488,21.286,15.215,4.84,1.2,7.164,1.877,7.164,4.163v2.319c0,1.686-1.905,1.686-2.531,1.686-1.163,0-2.337-.635-2.337-1.851V42.734H335.016v2.291c0,9.873,7.267,13.719,25.919,13.719M223.88,46.847a2.421,2.421,0,0,0,2.533,2.182c1.287,0,2.725-.934,2.725-2.182V22.665c0-1.137-1.464-2.017-2.725-2.017-1.2,0-2.533.862-2.533,2.017ZM199.908,43.2V26.308c0-10.348,8.67-15.376,26.5-15.376,17.457,0,26.309,5.172,26.309,15.376V43.2c0,10.2-8.852,15.378-26.309,15.378-17.588,0-26.5-5.174-26.5-15.378m122.878-.828V26.28h7.795V11.76h-7.795V5.133H299.009v40.39c0,8.572,5.649,12.394,18.318,12.394h13.448v-13.2h-4.483c-2.622,0-3.506-.592-3.506-2.347M75.671,42.21V39.752h27.09v5.439c0,1.691.241,3.339,3.115,3.339,2.331,0,3.117-.8,3.117-3.173V43.2c0-3.537-1.974-3.949-7.25-5.053l-1.284-.27c-19-4-24.789-8.4-24.789-18.859V16.868C75.671,6.147,86.752,0,106.071,0c24.991,0,30.013,6.518,30.013,17.033v3.946H110.552v-6.6c0-1.333-.964-2.678-3.116-2.678a2.875,2.875,0,0,0-3.117,2.678v2.154c0,3.725,2.452,4.858,7.951,5.986,19,3.83,24.788,7.85,24.788,17.2v3.149c0,12.535-8.239,17.2-30.4,17.2C83.78,60.07,75.671,55.4,75.671,42.21" transform="translate(0 0)" fill="#fff"/>
      <path id="Path_2303" data-name="Path 2303" d="M31.22,169.154c13.379,0,20.106-9.669,20.106-19.376S44.6,130.4,31.22,130.4H7.44v78.414h-6.3v-84.83H31.22c17.629,0,26.411,12.884,26.411,25.734s-8.782,25.735-26.411,25.735H24.2l36.983,33.361H51.7L13.309,174.184v-5.029Zm44.31.454h41.578v-6.416H75.53V130.4h42.5v-6.3H69.11v84.715h49.146v-6.3H75.53Zm101.147-25.277.307,2.443,6.228-1.243-.388-3.1-.013-.07c-2.167-11.514-12.385-17.914-23.752-19.129-10.923-1.168-22.762,2.515-29.01,10.584l0,.005a20.962,20.962,0,0,0-3.573,7.121,21.612,21.612,0,0,0-.685,7.882c.448,6.406,2.728,10.684,6.054,13.641a24.4,24.4,0,0,0,10.711,5.111c5.106,1.229,10.9,1.606,16.421,2.224a52.666,52.666,0,0,1,10.205,1.915c4.554,1.48,8.1,4.074,9.253,9.374A15.924,15.924,0,0,1,172.7,197.4c-4.732,3.885-11.439,5.92-17.873,5.92a29.793,29.793,0,0,1-15.119-4.139c-4.329-2.652-7.657-6.6-8.215-11.922l0-.043-.44-3.073-6.385.8.439,3.072a21.122,21.122,0,0,0,7.7,14.013c5.924,5.019,14.4,7.6,21.909,7.6,8.092,0,16.412-2.674,22.29-7.544,6.236-5.167,9.809-12.75,7.745-22.283-2.463-11.472-11.875-14.631-22.614-16.016-5.334-.687-10.976-.965-16-1.932a22.5,22.5,0,0,1-9.117-3.462c-2.787-2.041-4.581-5.178-4.938-10.033v0a16.455,16.455,0,0,1,.5-5.7,13.654,13.654,0,0,1,2.558-4.953l.02-.024a19.9,19.9,0,0,1,8.512-6.191,30.348,30.348,0,0,1,10.739-2.105h0a30.417,30.417,0,0,1,10.065,1.5,20.026,20.026,0,0,1,8.31,5.093,15.34,15.34,0,0,1,2.422,3.524,16.784,16.784,0,0,1,1.37,4.016l.1.827m120.556,24.823v5.029l38.394,34.633h9.482l-36.983-33.361h7.018c17.628,0,26.41-12.884,26.41-25.735s-8.782-25.734-26.41-25.734H285.059v84.83h6.3V130.4h23.782c13.379,0,20.106,9.668,20.106,19.376s-6.727,19.376-20.106,19.376ZM368.5,209.16h6.3V130.4h27.8v-6.416H340.7V130.4H368.5Zm86.957-64.828.307,2.443,6.228-1.243-.389-3.1-.012-.07c-2.168-11.514-12.387-17.914-23.751-19.129-10.924-1.168-22.763,2.515-29.011,10.584l0,.005a20.975,20.975,0,0,0-3.572,7.121,21.611,21.611,0,0,0-.686,7.882c.448,6.406,2.728,10.684,6.053,13.641a24.414,24.414,0,0,0,10.712,5.111c5.106,1.229,10.9,1.606,16.421,2.224a52.651,52.651,0,0,1,10.205,1.915c4.554,1.48,8.1,4.074,9.254,9.374a15.924,15.924,0,0,1-5.726,16.308c-4.733,3.885-11.44,5.92-17.875,5.92a29.8,29.8,0,0,1-15.119-4.139c-4.329-2.652-7.657-6.6-8.214-11.922l-.005-.043c-.005-.043-.439-3.073-.439-3.073l-6.386.8.439,3.072a21.126,21.126,0,0,0,7.7,14.013c5.925,5.019,14.4,7.6,21.91,7.6,8.091,0,16.411-2.674,22.289-7.544,6.237-5.167,9.81-12.75,7.746-22.283-2.464-11.472-11.875-14.631-22.615-16.016-5.334-.687-10.975-.965-16-1.932a22.5,22.5,0,0,1-9.117-3.462c-2.788-2.041-4.582-5.178-4.939-10.033v0a16.4,16.4,0,0,1,.5-5.7,13.659,13.659,0,0,1,2.559-4.953l.019-.024a19.9,19.9,0,0,1,8.513-6.191,30.338,30.338,0,0,1,10.739-2.105h0a30.415,30.415,0,0,1,10.064,1.5,20.026,20.026,0,0,1,8.31,5.093,15.339,15.339,0,0,1,2.422,3.524,16.832,16.832,0,0,1,1.371,4.016l.1.827m-252.32,42.1-4.967,4.221a44.187,44.187,0,0,1-4.117-7.624,43.128,43.128,0,0,1,0-33.254,44.481,44.481,0,0,1,9.379-14.095,42.312,42.312,0,0,1,13.99-9.522,42.785,42.785,0,0,1,46.39,8.7l-4.944,4.2a37.034,37.034,0,0,0-10.675-6.931,36.378,36.378,0,0,0-14.18-2.871,35.986,35.986,0,0,0-14.12,2.87,37.193,37.193,0,0,0-11.928,8.141,37.9,37.9,0,0,0-8.007,12.011,36.794,36.794,0,0,0,0,28.248,37.242,37.242,0,0,0,3.179,5.905M272.3,146.047l-5.053,4.3c.3.635.6,1.275.872,1.932a37.241,37.241,0,0,1-19.929,48.4,36.378,36.378,0,0,1-14.18,2.871,35.986,35.986,0,0,1-14.12-2.87,36.706,36.706,0,0,1-7.122-4.026l-5.044,4.288a42.4,42.4,0,0,0,9.7,5.706,42.985,42.985,0,0,0,47.28-9.514,44.492,44.492,0,0,0,9.386-14.1,43.129,43.129,0,0,0,0-33.254c-.533-1.278-1.139-2.515-1.785-3.728" transform="translate(-1.135 9.321)" fill="#fff" fill-rule="evenodd"/>
    </g>
  </g>
</svg>
