<svg xmlns="http://www.w3.org/2000/svg" xmlns:xlink="http://www.w3.org/1999/xlink" width="97.525" height="44.757" viewBox="0 0 97.525 44.757">
  <defs>
    <clipPath id="clip-path">
      <rect id="Rectangle_54" data-name="Rectangle 54" width="97.525" height="44.757" fill="#fff" stroke="#707070" stroke-width="1"/>
    </clipPath>
  </defs>
  <g id="Group_177" data-name="Group 177" clip-path="url(#clip-path)">
    <path id="Path_2302" data-name="Path 2302" d="M96.46,12.252l.342.957.344-.957h.38V13.59H97.28V12.511l-.37,1.079H96.7l-.373-1.079V13.59h-.246V12.252Zm-1.75.223v-.223h1.14v.223h-.437V13.59h-.266V12.476ZM59.564,20.05h-.318c-.475,0-.716.2-.716.58v1.15c0,.295.1.445.676.445h.358Zm4.853-2.395v6.553h-7.04c-1.172,0-3.9-.27-3.9-2.766v-.507c0-2.536,3.166-2.733,4.136-2.733h1.949v-1.29c0-.291-.218-.479-.556-.479h-.477v1.352H54.474c-.942,0-1.551.507-1.551,1.29v5.133H48.03V14.787h4.853v1.549l.075.018A3.425,3.425,0,0,1,56.3,14.618h3.222c4.074,0,4.892,1.162,4.892,3.037M59.09,5.533H60V2.265a2.868,2.868,0,0,0-2.392,1.162l-.074-.019V2.4H52.686v9.421h4.853v-5c0-.808.58-1.291,1.551-1.291M89.61,16.7h-.4c-.41,0-.556.212-.556.411v4.767c0,.285.171.412.556.412h.4Zm0-4.451h4.853V24.208H87.622c-1.148,0-3.819-.27-3.819-2.766V17.52a2.318,2.318,0,0,1,1.341-2.176,6.06,6.06,0,0,1,2.716-.557h1.75Zm-11.487,4.66c0-.266-.224-.445-.557-.445a.494.494,0,0,0-.517.445v1.155h1.073Zm4.813.879v2.293H77.05v1.865c0,.261.259.378.517.378.329,0,.517-.138.517-.378v-1.38h4.853v.636c0,2.112-1.756,3.138-5.37,3.138-3.536,0-5.33-1.079-5.33-3.206v-3.38c0-2.112,1.743-3.139,5.33-3.139,4.438,0,5.37,1.725,5.37,3.172M34.925,4.761a.542.542,0,0,0-.6-.445h-.437V9.905h.437a.542.542,0,0,0,.6-.445Zm.557,7.06H33.892v1.623H29.039V2.4h6.682c1.987,0,4.017.329,4.017,2.767V9.021c0,1.884-1.392,2.8-4.256,2.8m.265,6.447-.02,0c-.99-.236-1.442-.343-1.442-.812v-.439c0-.248.24-.378.477-.378.328,0,.517.138.517.378v.941h4.614v-.738c0-1.725-1.679-2.564-5.131-2.564-2.413,0-5.29.451-5.29,2.6v.405c0,1.133.324,2.149,4.3,3.106.988.245,1.462.383,1.462.85v.473c0,.344-.389.344-.516.344-.237,0-.477-.13-.477-.377v-.907H29.432v.468c0,2.015,1.483,2.8,5.29,2.8,3.68,0,5.25-.919,5.25-3.071v-.406c0-1.184-.587-1.817-4.225-2.666M22.838,21.712V14.787H17.985v6.655c0,1.784,1.356,2.766,3.819,2.766h6.881V14.787H23.832v7.37h-.557c-.363,0-.438-.178-.438-.445m22.735-8.277H40.719v8.21c0,1.8,1.118,2.563,3.739,2.563h2.665V21.515h-.875c-.474,0-.676-.133-.676-.445V17.683h1.551v-2.9H45.572Zm24.486,0H65.205v8.21c0,1.8,1.118,2.563,3.739,2.563h2.625V21.515h-.835c-.493,0-.676-.121-.676-.445V17.683h1.511v-2.9H70.058Zm-58.849-.676H6.317v11.45h4.892Zm5.868,0H12.185v11.45h4.893ZM5.37,10.832H0V24.208H5.37Zm68.3,1.158c3.652,0,5.211-.918,5.211-3.07V8.514c0-1.184-.587-1.817-4.225-2.666l-.019,0c-.991-.236-1.443-.344-1.443-.812V4.592c0-.248.24-.378.477-.378.328,0,.517.138.517.378v.941h4.455v-.7c0-1.748-1.639-2.6-5.012-2.6-4.34,0-5.25,1.431-5.25,2.631v.372c0,1.086.332,2.141,4.345,3.106.988.245,1.462.383,1.462.85v.473c0,.344-.389.344-.517.344-.237,0-.477-.13-.477-.378V8.722H68.379V9.19c0,2.015,1.483,2.8,5.29,2.8M45.7,9.562a.494.494,0,0,0,.517.445c.263,0,.556-.191.556-.445V4.626c0-.232-.3-.412-.556-.412s-.517.176-.517.412ZM40.8,8.818V5.37c0-2.112,1.77-3.138,5.41-3.138,3.563,0,5.37,1.056,5.37,3.138V8.818c0,2.083-1.807,3.139-5.37,3.139-3.59,0-5.41-1.056-5.41-3.139m25.08-.169V5.364h1.591V2.4H65.883V1.048H61.03V9.291c0,1.75,1.153,2.53,3.739,2.53h2.745V9.128H66.6c-.535,0-.716-.121-.716-.479M15.445,8.615v-.5h5.529v1.11c0,.345.049.682.636.682.476,0,.636-.163.636-.648v-.44c0-.722-.4-.806-1.48-1.031L20.5,7.731c-3.878-.816-5.06-1.715-5.06-3.849V3.443C15.445,1.255,17.707,0,21.65,0c5.1,0,6.126,1.33,6.126,3.477v.805H22.564V2.936a.562.562,0,0,0-.636-.547.587.587,0,0,0-.636.547v.44c0,.76.5.992,1.623,1.222,3.878.782,5.059,1.6,5.059,3.511v.643c0,2.558-1.682,3.51-6.2,3.51-4.669,0-6.325-.954-6.325-3.646" transform="translate(0 0)" fill="#B02109"/>
    <path id="Path_2303" data-name="Path 2303" d="M7.276,132.292a3.957,3.957,0,1,0,0-7.91H2.422v16H1.135V123.073H7.276a5.254,5.254,0,1,1,0,10.505H5.843l7.548,6.809H11.456L3.62,133.319v-1.027Zm9.044.093h8.486v-1.31H16.319v-6.693h8.674V123.1H15.009v17.291H25.04V139.1H16.319Zm20.645-5.159.063.5,1.271-.254-.079-.633,0-.014c-.442-2.35-2.528-3.656-4.848-3.9a6.7,6.7,0,0,0-5.921,2.16h0a4.278,4.278,0,0,0-.729,1.453,4.411,4.411,0,0,0-.14,1.609,3.881,3.881,0,0,0,1.236,2.784A4.981,4.981,0,0,0,30,131.97a28.242,28.242,0,0,0,3.352.454,10.749,10.749,0,0,1,2.083.391,2.508,2.508,0,0,1,1.889,1.913,3.25,3.25,0,0,1-1.169,3.329,5.871,5.871,0,0,1-3.648,1.208,6.081,6.081,0,0,1-3.086-.845,3.265,3.265,0,0,1-1.677-2.433v-.009l-.09-.627-1.3.163.09.627A4.311,4.311,0,0,0,28.01,139a7.153,7.153,0,0,0,4.472,1.55,7.28,7.28,0,0,0,4.55-1.54,4.431,4.431,0,0,0,1.581-4.548c-.5-2.342-2.424-2.986-4.616-3.269-1.089-.14-2.24-.2-3.267-.394a4.592,4.592,0,0,1-1.861-.707,2.6,2.6,0,0,1-1.008-2.048h0a3.359,3.359,0,0,1,.1-1.164,2.787,2.787,0,0,1,.522-1.011l0,0a4.062,4.062,0,0,1,1.737-1.264,6.2,6.2,0,0,1,2.192-.43h0a6.208,6.208,0,0,1,2.054.306,4.087,4.087,0,0,1,1.7,1.039,3.131,3.131,0,0,1,.494.719,3.426,3.426,0,0,1,.28.82l.021.169m24.606,5.067v1.027l7.836,7.069h1.935l-7.548-6.809h1.432a5.254,5.254,0,1,0,0-10.505H59.086v17.314h1.287v-16h4.854a3.957,3.957,0,1,1,0,7.91Zm14.546,8.165H77.4V124.383h5.673v-1.31H70.443v1.31h5.673Zm17.749-13.232.063.5,1.271-.254-.079-.633,0-.014c-.442-2.35-2.528-3.656-4.848-3.9a6.7,6.7,0,0,0-5.921,2.16h0a4.281,4.281,0,0,0-.729,1.453,4.411,4.411,0,0,0-.14,1.609,3.882,3.882,0,0,0,1.235,2.784A4.983,4.983,0,0,0,86.9,131.97a28.241,28.241,0,0,0,3.352.454,10.746,10.746,0,0,1,2.083.391,2.508,2.508,0,0,1,1.889,1.913,3.25,3.25,0,0,1-1.169,3.329,5.872,5.872,0,0,1-3.648,1.208,6.081,6.081,0,0,1-3.086-.845,3.265,3.265,0,0,1-1.677-2.433v-.009c0-.009-.09-.627-.09-.627l-1.3.163.09.627A4.312,4.312,0,0,0,84.91,139a7.154,7.154,0,0,0,4.472,1.55,7.28,7.28,0,0,0,4.549-1.54,4.431,4.431,0,0,0,1.581-4.548c-.5-2.342-2.424-2.986-4.616-3.269-1.089-.14-2.24-.2-3.266-.394a4.591,4.591,0,0,1-1.861-.707,2.6,2.6,0,0,1-1.008-2.048h0a3.348,3.348,0,0,1,.1-1.164,2.788,2.788,0,0,1,.522-1.011l0,0a4.061,4.061,0,0,1,1.738-1.264,6.193,6.193,0,0,1,2.192-.43h0a6.208,6.208,0,0,1,2.054.306,4.087,4.087,0,0,1,1.7,1.039,3.131,3.131,0,0,1,.494.719,3.435,3.435,0,0,1,.28.82l.021.169m-51.5,8.593-1.014.862a9.02,9.02,0,0,1-.84-1.556,8.8,8.8,0,0,1,0-6.787,9.079,9.079,0,0,1,1.914-2.877,8.636,8.636,0,0,1,2.856-1.943,8.733,8.733,0,0,1,9.469,1.775l-1.009.858a7.559,7.559,0,0,0-2.179-1.415,7.425,7.425,0,0,0-2.894-.586,7.345,7.345,0,0,0-2.882.586A7.591,7.591,0,0,0,43.35,126.4a7.736,7.736,0,0,0-1.634,2.452,7.51,7.51,0,0,0,0,5.766,7.6,7.6,0,0,0,.649,1.205m14.117-8.243-1.031.877c.062.13.123.26.178.394a7.6,7.6,0,0,1-4.068,9.879,7.425,7.425,0,0,1-2.894.586,7.345,7.345,0,0,1-2.882-.586,7.492,7.492,0,0,1-1.454-.822l-1.029.875a8.654,8.654,0,0,0,1.979,1.165A8.773,8.773,0,0,0,54.931,138a9.081,9.081,0,0,0,1.916-2.878,8.8,8.8,0,0,0,0-6.787c-.109-.261-.232-.513-.364-.761" transform="translate(-1.135 -95.864)" fill="#000" fill-rule="evenodd"/>
  </g>
</svg>
